PathFileType	4	(X/Y/Z)	E:\Dropbox\SEL\BOX\Experiment\240124_SUB1_PJH\c3d\XYZ\Static.trc
DataRate	CameraRate	NumFrames	NumMarkers	Units	OrigDataRate	OrigDataStartFrame	OrigNumFrames
100	100	6	59	m	100	172	228
Frame#	Time	LFHD			LBHD			LSHO			CLAV			STRN			C7			T10			LUPA			LELB			LFRA			LWRA			LWRB			LFN2			LFN5			LASI			LPSI			LGTR			LKNE			LMFC			LLTP			LMTP			LANK			LMMA			LTOE			LMT5			LHEE			LTA_BOX			LTP_BOX			LBA_BOX			LBP_BOX			LHN_BOX			RFHD			RBHD			RSHO			RBAK			RUPA			RELB			RFRA			RWRA			RWRB			RFN2			RFN5			RASI			RPSI			RGTR			RKNE			RMFC			RLTP			RMTP			RANK			RMMA			RTOE			RMT5			RHEE			RTA_BOX			RTP_BOX			RBA_BOX			RBP_BOX			RHN_BOX		
		X1	Y1	Z1	X2	Y2	Z2	X3	Y3	Z3	X4	Y4	Z4	X5	Y5	Z5	X6	Y6	Z6	X7	Y7	Z7	X8	Y8	Z8	X9	Y9	Z9	X10	Y10	Z10	X11	Y11	Z11	X12	Y12	Z12	X13	Y13	Z13	X14	Y14	Z14	X15	Y15	Z15	X16	Y16	Z16	X17	Y17	Z17	X18	Y18	Z18	X19	Y19	Z19	X20	Y20	Z20	X21	Y21	Z21	X22	Y22	Z22	X23	Y23	Z23	X24	Y24	Z24	X25	Y25	Z25	X26	Y26	Z26	X27	Y27	Z27	X28	Y28	Z28	X29	Y29	Z29	X30	Y30	Z30	X31	Y31	Z31	X32	Y32	Z32	X33	Y33	Z33	X34	Y34	Z34	X35	Y35	Z35	X36	Y36	Z36	X37	Y37	Z37	X38	Y38	Z38	X39	Y39	Z39	X40	Y40	Z40	X41	Y41	Z41	X42	Y42	Z42	X43	Y43	Z43	X44	Y44	Z44	X45	Y45	Z45	X46	Y46	Z46	X47	Y47	Z47	X48	Y48	Z48	X49	Y49	Z49	X50	Y50	Z50	X51	Y51	Z51	X52	Y52	Z52	X53	Y53	Z53	X54	Y54	Z54	X55	Y55	Z55	X56	Y56	Z56	X57	Y57	Z57	X58	Y58	Z58	X59	Y59	Z59	

172	1.710000	0.323319	1.698655	0.246326	0.329988	1.659053	0.370751	0.259705	1.452526	0.292742	0.411364	1.418996	0.184372	0.409840	1.197227	0.111847	0.405530	1.460847	0.336767	0.394487	1.178417	0.368568	0.057132	1.364831	0.310688	-0.024670	1.333812	0.305220	-0.183215	1.319903	0.279449	-0.257522	1.353904	0.200813	-0.262407	1.297336	0.255841	-0.357821	1.336490	0.225385	-0.326619	1.267681	0.237676	0.279360	0.944708	0.182930	0.361334	0.955463	0.380320	0.228766	0.888659	0.276596	0.241087	0.495642	0.259111	0.352134	0.465507	0.243482	0.231725	0.445184	0.294076	0.357354	0.428197	0.267644	0.228253	0.077485	0.347476	0.331055	0.098350	0.310493	0.244812	0.049844	0.193215	0.189414	0.035776	0.241033	0.279229	0.028735	0.401727	0.194420	0.531750	-0.174021	0.194103	0.530110	0.107945	0.168003	0.256381	-0.174406	0.168731	0.254775	0.106353	0.280940	0.423306	-0.034018	0.483229	1.698301	0.249696	0.481985	1.661576	0.370118	0.560393	1.451103	0.284405	0.493735	1.297494	0.386168	0.671840	1.430808	0.294110	0.846251	1.320541	0.299801	0.935330	1.323468	0.303528	1.082812	1.371180	0.230333	1.083399	1.314983	0.275046	1.172778	1.359180	0.259712	1.149123	1.280063	0.259389	0.528476	0.944963	0.167121	0.470915	0.956197	0.367657	0.585863	0.891441	0.248701	0.572359	0.483959	0.245757	0.448647	0.474562	0.244964	0.580262	0.449831	0.266893	0.454492	0.415976	0.274182	0.583800	0.082061	0.334238	0.480546	0.094478	0.325152	0.558982	0.049006	0.186011	0.610791	0.038083	0.216600	0.539902	0.047901	0.393630	0.576231	0.533197	-0.172051	0.575520	0.531419	0.109614	0.603037	0.257384	-0.172925	0.601519	0.255230	0.107570	0.488647	0.425207	-0.030904	
173	1.720000	0.323377	1.698771	0.246919	0.330224	1.658953	0.371265	0.259626	1.452508	0.292637	0.411320	1.419060	0.184301	0.409784	1.197230	0.111769	0.405478	1.460804	0.336716	0.394466	1.178451	0.368480	0.057080	1.364753	0.310590	-0.024712	1.333706	0.305131	-0.183283	1.319750	0.279337	-0.257549	1.353740	0.200657	-0.262439	1.297143	0.255674	-0.357862	1.336324	0.225222	-0.326636	1.267513	0.237520	0.279348	0.944701	0.182940	0.361302	0.955502	0.380329	0.228742	0.888670	0.276587	0.241083	0.495645	0.259124	0.352122	0.465509	0.243485	0.231721	0.445184	0.294088	0.357350	0.428199	0.267649	0.228252	0.077486	0.347476	0.331053	0.098350	0.310494	0.244811	0.049843	0.193217	0.189415	0.035773	0.241030	0.279231	0.028736	0.401723	0.194417	0.531748	-0.174018	0.194104	0.530108	0.107941	0.168003	0.256380	-0.174413	0.168728	0.254776	0.106355	0.280940	0.423305	-0.034024	0.483291	1.698314	0.250040	0.482215	1.661384	0.370403	0.560345	1.451125	0.284290	0.493724	1.297504	0.386039	0.671800	1.430799	0.293969	0.846184	1.320470	0.299728	0.935264	1.323373	0.303476	1.082776	1.371049	0.230314	1.083330	1.314839	0.275025	1.172730	1.359010	0.259720	1.149059	1.279906	0.259381	0.528459	0.944959	0.167090	0.470927	0.956220	0.367633	0.585855	0.891446	0.248668	0.572351	0.483963	0.245756	0.448642	0.474563	0.244972	0.580256	0.449835	0.266896	0.454488	0.415976	0.274189	0.583795	0.082066	0.334242	0.480548	0.094477	0.325153	0.558982	0.049004	0.186008	0.610773	0.038104	0.216586	0.539904	0.047900	0.393630	0.576230	0.533195	-0.172053	0.575519	0.531418	0.109616	0.603039	0.257385	-0.172929	0.601518	0.255229	0.107569	0.488645	0.425205	-0.030908	
174	1.730000	0.323453	1.698891	0.247516	0.330454	1.658845	0.371783	0.259550	1.452488	0.292535	0.411270	1.419126	0.184214	0.409730	1.197235	0.111699	0.405426	1.460755	0.336666	0.394444	1.178487	0.368390	0.057025	1.364674	0.310487	-0.024752	1.333603	0.305033	-0.183351	1.319600	0.279215	-0.257570	1.353568	0.200507	-0.262460	1.296947	0.255487	-0.357905	1.336156	0.225047	-0.326646	1.267346	0.237359	0.279334	0.944695	0.182949	0.361276	0.955541	0.380336	0.228696	0.888688	0.276559	0.241076	0.495649	0.259142	0.352112	0.465513	0.243493	0.231721	0.445184	0.294103	0.357348	0.428200	0.267659	0.228250	0.077486	0.347473	0.331050	0.098350	0.310494	0.244808	0.049842	0.193220	0.189415	0.035771	0.241028	0.279232	0.028739	0.401721	0.194415	0.531747	-0.174017	0.194105	0.530108	0.107940	0.168004	0.256380	-0.174421	0.168727	0.254777	0.106358	0.280940	0.423305	-0.034028	0.483368	1.698315	0.250408	0.482438	1.661169	0.370708	0.560300	1.451146	0.284176	0.493717	1.297509	0.385910	0.671759	1.430784	0.293829	0.846122	1.320398	0.299648	0.935199	1.323271	0.303416	1.082744	1.370909	0.230288	1.083260	1.314694	0.275001	1.172684	1.358831	0.259725	1.148996	1.279744	0.259366	0.528437	0.944957	0.167051	0.470938	0.956242	0.367607	0.585848	0.891450	0.248633	0.572342	0.483968	0.245755	0.448635	0.474564	0.244979	0.580248	0.449842	0.266899	0.454484	0.415976	0.274192	0.583796	0.082064	0.334243	0.480552	0.094473	0.325150	0.558983	0.049003	0.186008	0.610762	0.038116	0.216578	0.539907	0.047901	0.393630	0.576230	0.533195	-0.172054	0.575519	0.531417	0.109617	0.603040	0.257385	-0.172933	0.601518	0.255228	0.107569	0.488645	0.425204	-0.030914	
175	1.740000	0.323543	1.699013	0.248119	0.330676	1.658732	0.372304	0.259477	1.452468	0.292437	0.411205	1.419194	0.184111	0.409682	1.197239	0.111633	0.405376	1.460705	0.336617	0.394423	1.178522	0.368302	0.056973	1.364595	0.310380	-0.024787	1.333501	0.304927	-0.183412	1.319455	0.279076	-0.257585	1.353391	0.200347	-0.262468	1.296755	0.255296	-0.357948	1.335982	0.224856	-0.326652	1.267180	0.237197	0.279320	0.944688	0.182954	0.361264	0.955574	0.380337	0.228635	0.888710	0.276520	0.241066	0.495655	0.259164	0.352102	0.465518	0.243509	0.231727	0.445184	0.294123	0.357348	0.428202	0.267674	0.228249	0.077484	0.347469	0.331046	0.098351	0.310495	0.244805	0.049844	0.193223	0.189413	0.035771	0.241028	0.279231	0.028743	0.401720	0.194418	0.531746	-0.174019	0.194101	0.530114	0.107949	0.168005	0.256380	-0.174428	0.168727	0.254777	0.106360	0.280940	0.423306	-0.034028	0.483458	1.698303	0.250796	0.482657	1.660934	0.371032	0.560258	1.451166	0.284063	0.493710	1.297510	0.385781	0.671723	1.430767	0.293692	0.846062	1.320324	0.299563	0.935134	1.323164	0.303347	1.082715	1.370765	0.230253	1.083192	1.314548	0.274972	1.172641	1.358648	0.259722	1.148933	1.279578	0.259343	0.528409	0.944956	0.167001	0.470950	0.956263	0.367577	0.585839	0.891454	0.248592	0.572334	0.483972	0.245753	0.448627	0.474566	0.244987	0.580238	0.449852	0.266902	0.454478	0.415978	0.274199	0.583803	0.082055	0.334241	0.480559	0.094467	0.325143	0.558985	0.049003	0.186009	0.610756	0.038124	0.216575	0.539909	0.047904	0.393630	0.576232	0.533196	-0.172054	0.575518	0.531417	0.109616	0.603042	0.257387	-0.172936	0.601516	0.255226	0.107572	0.488649	0.425204	-0.030914	
176	1.750000	0.323645	1.699133	0.248729	0.330890	1.658613	0.372828	0.259407	1.452447	0.292339	0.411136	1.419270	0.183988	0.409640	1.197239	0.111562	0.405328	1.460655	0.336567	0.394405	1.178552	0.368221	0.056927	1.364516	0.310267	-0.024816	1.333400	0.304814	-0.183465	1.319314	0.278930	-0.257593	1.353213	0.200168	-0.262456	1.296560	0.255098	-0.357990	1.335802	0.224647	-0.326658	1.267016	0.237037	0.279302	0.944684	0.182958	0.361259	0.955605	0.380334	0.228583	0.888730	0.276495	0.241051	0.495662	0.259189	0.352091	0.465523	0.243532	0.231742	0.445183	0.294147	0.357347	0.428205	0.267693	0.228246	0.077483	0.347468	0.331042	0.098353	0.310501	0.244800	0.049847	0.193226	0.189409	0.035769	0.241030	0.279230	0.028745	0.401720	0.194422	0.531746	-0.174021	0.194095	0.530120	0.107960	0.168008	0.256377	-0.174433	0.168729	0.254776	0.106359	0.280939	0.423307	-0.034024	0.483563	1.698280	0.251204	0.482875	1.660685	0.371379	0.560223	1.451185	0.283951	0.493703	1.297510	0.385652	0.671692	1.430748	0.293556	0.846004	1.320249	0.299472	0.935071	1.323052	0.303271	1.082688	1.370620	0.230210	1.083127	1.314401	0.274932	1.172604	1.358463	0.259708	1.148873	1.279409	0.259309	0.528372	0.944957	0.166929	0.470965	0.956286	0.367543	0.585829	0.891455	0.248545	0.572326	0.483974	0.245752	0.448617	0.474568	0.244998	0.580225	0.449860	0.266905	0.454470	0.415981	0.274210	0.583809	0.082047	0.334238	0.480566	0.094459	0.325133	0.558986	0.049001	0.186008	0.610753	0.038129	0.216576	0.539911	0.047906	0.393629	0.576234	0.533199	-0.172054	0.575515	0.531417	0.109614	0.603043	0.257389	-0.172937	0.601514	0.255225	0.107577	0.488659	0.425202	-0.030912	
177	1.760000	0.323757	1.699251	0.249342	0.331095	1.658487	0.373353	0.259340	1.452426	0.292242	0.411071	1.419346	0.183854	0.409603	1.197237	0.111490	0.405282	1.460607	0.336522	0.394393	1.178577	0.368147	0.056885	1.364436	0.310147	-0.024843	1.333300	0.304694	-0.183509	1.319177	0.278784	-0.257599	1.353036	0.199979	-0.262431	1.296364	0.254888	-0.358022	1.335615	0.224430	-0.326665	1.266853	0.236876	0.279279	0.944682	0.182968	0.361256	0.955632	0.380326	0.228550	0.888742	0.276492	0.241027	0.495672	0.259215	0.352079	0.465528	0.243559	0.231769	0.445179	0.294171	0.357339	0.428209	0.267713	0.228242	0.077480	0.347472	0.331039	0.098359	0.310512	0.244795	0.049851	0.193229	0.189405	0.035766	0.241031	0.279230	0.028744	0.401721	0.194423	0.531744	-0.174024	0.194092	0.530124	0.107968	0.168010	0.256373	-0.174437	0.168734	0.254771	0.106354	0.280938	0.423307	-0.034020	0.483677	1.698250	0.251636	0.483094	1.660430	0.371748	0.560195	1.451201	0.283838	0.493694	1.297511	0.385524	0.671666	1.430728	0.293423	0.845948	1.320171	0.299376	0.935012	1.322940	0.303189	1.082662	1.370476	0.230158	1.083067	1.314254	0.274879	1.172572	1.358279	0.259677	1.148814	1.279241	0.259260	0.528326	0.944955	0.166845	0.470983	0.956308	0.367505	0.585818	0.891453	0.248491	0.572319	0.483976	0.245753	0.448606	0.474570	0.245012	0.580215	0.449863	0.266908	0.454463	0.415983	0.274223	0.583804	0.082050	0.334240	0.480573	0.094447	0.325122	0.558987	0.048998	0.186005	0.610753	0.038130	0.216577	0.539915	0.047906	0.393631	0.576236	0.533200	-0.172054	0.575514	0.531417	0.109613	0.603043	0.257391	-0.172937	0.601515	0.255226	0.107582	0.488678	0.425196	-0.030913	
